HIERARCHY
ROOT Hips
{
	OFFSET -0.001795 -0.223333 0.028219
	CHANNELS 6 Xposition Yposition Zposition Zrotation Yrotation Xrotation 
	JOINT LeftUpLeg
	{
		OFFSET 0.069520 -0.091406 -0.006815
		CHANNELS 3 Zrotation Yrotation Xrotation
		JOINT LeftLeg
		{
			OFFSET 0.034277 -0.375199 -0.004496
			CHANNELS 3 Zrotation Yrotation Xrotation
			JOINT LeftFoot
			{
				OFFSET -0.013596 -0.397961 -0.043693
				CHANNELS 3 Zrotation Yrotation Xrotation
				JOINT LeftToe
				{
					OFFSET 0.026358 -0.055791 0.119288
					CHANNELS 3 Zrotation Yrotation Xrotation
					End Site
					{
						OFFSET 0.000000 0.000000 0.000000
					}
				}
			}
		}
	}
	JOINT RightUpLeg
	{
		OFFSET -0.067670 -0.090522 -0.004320
		CHANNELS 3 Zrotation Yrotation Xrotation
		JOINT RightLeg
		{
			OFFSET -0.038290 -0.382569 -0.008850
			CHANNELS 3 Zrotation Yrotation Xrotation
			JOINT RightFoot
			{
				OFFSET 0.015774 -0.398415 -0.042312
				CHANNELS 3 Zrotation Yrotation Xrotation
				JOINT RightToe
				{
					OFFSET -0.025372 -0.048144 0.123348
					CHANNELS 3 Zrotation Yrotation Xrotation
					End Site
					{
						OFFSET 0.000000 0.000000 0.000000
					}
				}
			}
		}
	}
	JOINT Spine
	{
		OFFSET -0.002533 0.108963 -0.026696
		CHANNELS 3 Zrotation Yrotation Xrotation
		JOINT Spine1
		{
			OFFSET 0.005487 0.135180 0.001092
			CHANNELS 3 Zrotation Yrotation Xrotation
			JOINT Spine2
			{
				OFFSET 0.001457 0.052922 0.025425
				CHANNELS 3 Zrotation Yrotation Xrotation
				JOINT Neck
				{
					OFFSET -0.002778 0.213870 -0.042857
					CHANNELS 3 Zrotation Yrotation Xrotation
					JOINT Head
					{
						OFFSET 0.005152 0.064970 0.051349
						CHANNELS 3 Zrotation Yrotation Xrotation
						End Site
						{
							OFFSET 0.000000 0.000000 0.000000
						}
					}
				}
				JOINT LeftShoulder
				{
					OFFSET 0.078845 0.121749 -0.034090
					CHANNELS 3 Zrotation Yrotation Xrotation
					JOINT LeftArm
					{
						OFFSET 0.090977 0.030469 -0.008868
						CHANNELS 3 Zrotation Yrotation Xrotation
						JOINT LeftForeArm
						{
							OFFSET 0.259612 -0.012772 -0.027456
							CHANNELS 3 Zrotation Yrotation Xrotation
							JOINT LeftHand
							{
								OFFSET 0.249234 0.008986 -0.001171
								CHANNELS 3 Zrotation Yrotation Xrotation
								End Site
								{
									OFFSET 0.000000 0.000000 0.000000
								}
							}
						}
					}
				}
				JOINT RightShoulder
				{
					OFFSET -0.081759 0.118833 -0.038615
					CHANNELS 3 Zrotation Yrotation Xrotation
					JOINT RightArm
					{
						OFFSET -0.096012 0.032551 -0.009143
						CHANNELS 3 Zrotation Yrotation Xrotation
						JOINT RightForeArm
						{
							OFFSET -0.253742 -0.013329 -0.021401
							CHANNELS 3 Zrotation Yrotation Xrotation
							JOINT RightHand
							{
								OFFSET -0.255298 0.007772 -0.005559
								CHANNELS 3 Zrotation Yrotation Xrotation
								End Site
								{
									OFFSET 0.000000 0.000000 0.000000
								}
							}
						}
					}
				}
			}
		}
	}
}
MOTION
Frames: 9
Frame Time: 0.050000
0.531603 0.934774 2.205440 0.291763 12.839507 2.053393 3.376170 -3.464153 -33.613758 -6.603616 -0.649408 43.037337 8.565357 18.433510 4.036058 0.000000 0.000000 0.000000 5.960702 1.670508 -12.213830 -0.483526 -0.161951 33.413752 -1.415471 -3.330972 -1.128802 0.000000 0.000000 0.000000 -3.837913 -1.013841 26.589246 7.954967 -0.813527 -27.897723 4.084063 2.118382 32.716236 -1.144562 3.808506 -26.027967 0.000000 0.000000 0.000000 -26.091220 5.640854 -8.433816 -39.966317 3.248352 -7.109447 -119.854271 -42.669880 69.613046 0.000000 0.000000 0.000000 8.981610 6.414911 3.714545 46.589235 18.875348 -0.266058 144.840199 65.773288 144.646986 0.000000 0.000000 0.000000 
0.550993 0.959167 2.281622 0.259322 11.826777 3.397952 1.249856 -3.736029 -32.463947 -3.064182 -0.655295 24.130190 6.489806 14.344154 2.505569 0.000000 0.000000 0.000000 5.774927 0.716178 -5.366328 -1.214220 0.466025 26.469505 0.851496 0.576368 4.318055 0.000000 0.000000 0.000000 -5.031499 -0.536187 24.493554 7.741716 -0.805283 -27.591708 4.971197 4.058855 31.272619 0.673356 2.896058 -24.814410 0.000000 0.000000 0.000000 -23.332527 7.565889 -9.367362 -39.779294 7.404092 -8.086701 -123.925646 -38.448914 66.488895 0.000000 0.000000 0.000000 4.294516 6.066032 2.917439 50.624196 20.688994 1.758334 144.980999 62.227116 143.710772 0.000000 0.000000 0.000000 
0.570187 0.975222 2.362375 -0.194098 11.097267 3.526474 0.496873 -3.161001 -27.972006 -2.382940 0.056617 6.234117 4.910704 11.575644 3.544822 0.000000 0.000000 0.000000 5.329736 -0.480746 2.445587 -1.241275 0.598873 21.485169 2.546871 3.040522 7.879700 0.000000 0.000000 0.000000 -5.513369 -0.297320 22.410476 7.203323 -0.701958 -27.627366 5.675806 3.858680 31.172602 -0.543110 3.595575 -25.835333 0.000000 0.000000 0.000000 -22.534884 9.127709 -9.876716 -39.208192 9.603261 -8.652295 -125.655950 -35.068489 63.120574 0.000000 0.000000 0.000000 3.049464 5.264617 2.369979 50.766093 22.072044 2.543434 140.077629 59.025482 133.007161 0.000000 0.000000 0.000000 
0.589320 0.978471 2.447884 -0.492431 9.466779 3.170084 1.567345 -2.479361 -25.145226 -4.203710 0.360697 1.419607 5.735151 12.874876 3.172757 0.000000 0.000000 0.000000 3.930796 -1.164985 7.324114 -0.459251 0.456366 22.622138 4.314320 3.464959 14.979499 0.000000 0.000000 0.000000 -6.012506 -0.021295 18.775489 7.223819 -0.802903 -26.455481 4.723897 4.470359 32.535630 0.378899 3.154905 -27.460497 0.000000 0.000000 0.000000 -21.715657 12.102952 -11.264092 -39.130224 8.830937 -8.547780 -125.814792 -33.660480 60.993440 0.000000 0.000000 0.000000 2.455229 4.537898 1.989235 50.841013 22.716128 2.757112 137.009593 57.709741 127.206766 0.000000 0.000000 0.000000 
0.609064 0.965531 2.536326 0.078437 9.634450 0.548410 -0.877775 -2.395534 -21.108992 -3.753872 0.278455 5.205896 5.056147 12.338711 6.025996 0.000000 0.000000 0.000000 2.942590 -1.602261 10.848605 -0.537248 0.436354 28.907031 5.396434 4.287360 17.515852 0.000000 0.000000 0.000000 -8.834142 0.371448 18.391376 7.816196 -1.043348 -25.757863 5.447192 3.672647 32.879689 -0.251946 3.421089 -27.741945 0.000000 0.000000 0.000000 -21.602687 12.045374 -10.931947 -38.611899 8.795615 -8.451911 -123.820730 -37.039691 64.590927 0.000000 0.000000 0.000000 0.121157 3.545613 1.266333 55.193082 20.964853 2.766357 132.771345 54.117886 117.116390 0.000000 0.000000 0.000000 
0.629173 0.942138 2.623854 0.311205 10.468191 -1.447254 -3.005863 -2.370193 -18.467192 -3.051154 -0.110193 14.284287 3.961721 9.231633 2.617448 0.000000 0.000000 0.000000 2.510922 -1.146083 8.170835 -2.332732 0.880326 42.984084 5.139764 5.515668 13.421413 0.000000 0.000000 0.000000 -10.108793 0.483625 19.405621 8.691244 -1.224550 -26.243994 3.208543 0.965503 33.435729 -1.677566 3.891144 -30.480562 0.000000 0.000000 0.000000 -23.767151 13.396055 -11.657065 -36.667372 5.676393 -7.307148 -120.276328 -39.333627 65.621139 0.000000 0.000000 0.000000 2.183720 3.929855 1.613638 55.202151 18.653154 0.965251 128.417186 52.229408 106.875034 0.000000 0.000000 0.000000 
0.648734 0.920188 2.706994 0.558318 12.885933 -4.144380 -3.903915 -1.965486 -14.774826 -2.934250 -0.740749 22.780663 4.548920 8.314642 -2.310352 0.000000 0.000000 0.000000 2.207652 -0.177550 1.420108 -3.680500 0.392929 58.875235 4.313851 5.531768 9.555802 0.000000 0.000000 0.000000 -9.872247 0.255884 21.088624 8.371655 -1.258135 -24.919448 0.827624 -2.192843 33.773416 -1.797711 3.643290 -32.107267 0.000000 0.000000 0.000000 -25.242364 10.813566 -9.758848 -38.216629 -0.760478 -6.069344 -119.731738 -45.183968 75.158892 0.000000 0.000000 0.000000 5.110021 2.547297 1.243388 56.403875 12.940475 -2.208112 123.652691 52.390152 99.196329 0.000000 0.000000 0.000000 
0.667351 0.913308 2.788432 0.462037 15.556858 -6.981846 -4.232415 -0.873994 -7.164244 -2.274910 -1.395367 25.740855 5.121187 7.518874 -5.889192 0.000000 0.000000 0.000000 2.682516 0.778285 -6.180443 -5.321403 0.085581 65.687900 2.193978 3.314335 4.412059 0.000000 0.000000 0.000000 -8.229618 -0.275416 23.633177 7.914127 -1.115370 -25.112623 -2.512799 -6.818301 34.005268 -3.065128 3.725766 -32.495379 0.000000 0.000000 0.000000 -26.288760 7.875938 -6.889111 -38.471913 -7.672322 -4.612855 -120.625555 -49.682677 84.740361 0.000000 0.000000 0.000000 7.451115 0.057210 0.049277 54.548029 5.730256 -5.924178 117.744226 49.915610 85.317958 0.000000 0.000000 0.000000 
0.685035 0.919492 2.871541 -0.840381 17.528191 -8.655459 -1.970021 0.164415 1.706458 -1.689191 -1.472796 23.621272 5.246056 6.321928 -7.811987 0.000000 0.000000 0.000000 1.784235 1.429644 -14.434169 -4.249555 -1.203570 61.045673 0.247159 1.104884 -1.234661 0.000000 0.000000 0.000000 -5.831012 -0.884106 24.423922 7.853520 -0.990762 -26.442601 -5.538715 -12.428366 35.043837 -4.869286 3.879171 -33.103859 0.000000 0.000000 0.000000 -27.053383 6.084081 -4.276850 -38.701522 -14.670175 -3.201790 -123.299375 -52.152379 94.133883 0.000000 0.000000 0.000000 8.322192 -1.317473 -0.990223 50.374696 -0.962826 -8.478986 115.470495 48.336019 76.067699 0.000000 0.000000 0.000000 
